# Created by MKDS Course Modifier
mtllib Office Chair.mtl
g polygon0
usemtl _05
v -0.09619141 1 -0.3171387
v 0.09619141 1 -0.3171387
v -0.09619141 1.395264 -0.4516602
v 0.09619141 1.395264 -0.4516602
vn 0 0.3222656 0.9472656
vn 0 0.3222656 0.9472656
vn 0.08203125 0.2558594 0.9628906
vn -0.1035156 0.2382813 0.9648438
vt 0.21875 -0.6816406
vt 0.8359375 -0.6816406
vt 0.21875 -0.009765625
vt 0.8359375 -0.009765625
f 1/1/1 2/2/2 3/3/3
f 2/2/2 4/4/4 3/3/3
v 0 0.7868652 -0.3764648
v 0 1.381592 -0.5625
v 0.09619141 1 -0.3171387
v 0.09619141 1.395264 -0.4516602
vn 0.484375 0.03515625 -0.875
vn 0.765625 -0.1992188 -0.6113281
vn 0.6445313 -0.09570313 -0.7597656
vn 0.75 -0.2128906 -0.625
vt 1 -0.9609375
vt 1 -0.009765625
vt 0.8359375 -0.6816406
vt 0.8359375 -0.009765625
f 5/5/5 6/6/6 7/7/7
f 6/6/6 8/8/8 7/7/7
v 0 0.7868652 -0.3764648
v -0.09619141 1 -0.3171387
v 0 1.381592 -0.5625
v -0.09619141 1.395264 -0.4516602
vn -0.484375 0.03515625 -0.875
vn -0.6445313 -0.09570313 -0.7597656
vn -0.765625 -0.1992188 -0.6113281
vn -0.75 -0.2128906 -0.625
vt 1 -0.9609375
vt 0.8359375 -0.6816406
vt 1 -0.009765625
vt 0.8359375 -0.009765625
f 9/9/9 10/10/10 11/11/11
f 10/10/10 12/12/12 11/11/11
g polygon1
usemtl _01
v 0.5717773 1.574463 -0.3520508
v 0.6342773 2.102539 -0.5048828
v 0.09619141 1.395264 -0.4516602
v 0 2.176758 -0.5847168
v -0.09619141 1.395264 -0.4516602
v -0.6342773 2.102539 -0.5048828
v -0.5717773 1.574463 -0.3520508
vn -0.3027344 0.296875 0.90625
vn -0.2050781 0.2285156 0.9511719
vn -0.1035156 0.2382813 0.9648438
vn 0 0.1601563 0.9863281
vn 0.08203125 0.2558594 0.9628906
vn 0.2050781 0.2285156 0.9511719
vn 0.3027344 0.296875 0.90625
vt 0.984375 -0.8476563
vt 0.8925781 -0.6279297
vt 0.578125 -0.9736328
vt 0.5039063 -0.6396484
vt 0.4257813 -0.9736328
vt 0.1328125 -0.6376953
vt 0.0390625 -0.8544922
f 13/13/13 14/14/14 15/15/15
f 14/14/14 16/16/16 15/15/15
f 15/15/15 16/16/16 17/17/17
f 16/16/16 18/18/18 17/17/17
f 17/17/17 18/18/18 19/19/19
v 0.5717773 1.548584 -0.5200195
v 0 1.381592 -0.5625
v 0.6342773 2.077148 -0.6015625
v 0 2.153564 -0.692627
vn 0.1210938 -0.1640625 -0.9785156
vn 0 -0.1660156 -0.9863281
vn 0.1210938 -0.1640625 -0.9785156
vn 0 -0.1660156 -0.9863281
vt 0.9746094 -0.3095703
vt 0.5019531 -0.2421875
vt 0.8847656 -0.6113281
vt 0.5058594 -0.5898438
f 20/20/20 21/21/21 22/22/22
f 21/21/21 23/23/23 22/22/22
v -0.6342773 2.102539 -0.5048828
v 0 2.176758 -0.5847168
v -0.6342773 2.077148 -0.6015625
v 0 2.153564 -0.692627
vn -0.1445313 0.9570313 -0.2519531
vn 0 0.9726563 -0.2324219
vn -0.1445313 0.9628906 -0.2304688
vn 0 0.9785156 -0.2089844
vt 0.2421875 -0.6298828
vt 0.5 -0.6337891
vt 0.2421875 -0.5849609
vt 0.5 -0.5849609
f 24/24/24 25/25/25 26/26/26
f 25/25/25 27/27/27 26/26/26
v 0.6342773 2.102539 -0.5048828
v 0.6342773 2.077148 -0.6015625
v 0 2.176758 -0.5847168
v 0 2.153564 -0.692627
vn 0.1445313 0.9570313 -0.2519531
vn 0.1445313 0.9628906 -0.2304688
vn 0 0.9726563 -0.2324219
vn 0 0.9785156 -0.2089844
vt 0.7578125 -0.6298828
vt 0.7578125 -0.5849609
vt 0.5 -0.6337891
vt 0.5 -0.5849609
f 28/28/28 29/29/29 30/30/30
f 29/29/29 31/31/31 30/30/30
v -0.5717773 1.548584 -0.5200195
v -0.6342773 2.077148 -0.6015625
v 0 1.381592 -0.5625
v 0 2.153564 -0.692627
vn -0.1210938 -0.1640625 -0.9785156
vn -0.1210938 -0.1640625 -0.9785156
vn 0 -0.1660156 -0.9863281
vn 0 -0.1660156 -0.9863281
vt 0.005859375 -0.3242188
vt 0.1132813 -0.6113281
vt 0.5019531 -0.2421875
vt 0.5058594 -0.5898438
f 32/32/32 33/33/33 34/34/34
f 33/33/33 35/35/35 34/34/34
v 0.5717773 1.574463 -0.3520508
v 0.5717773 1.548584 -0.5200195
v 0.6342773 2.102539 -0.5048828
v 0.6342773 2.077148 -0.6015625
vn 0.9941406 -0.1132813 0.01757813
vn 0.9941406 -0.1132813 0.0234375
vn 0.9941406 -0.1132813 0.0234375
vn 0.9941406 -0.1132813 0.02929688
vt 0.009765625 -0.5996094
vt 0.01367188 -0.6367188
vt 0.1328125 -0.6064453
vt 0.1328125 -0.6279297
f 36/36/36 37/37/37 38/38/38
f 37/37/37 39/39/39 38/38/38
v -0.5717773 1.574463 -0.3520508
v -0.6342773 2.102539 -0.5048828
v -0.5717773 1.548584 -0.5200195
v -0.6342773 2.077148 -0.6015625
vn -0.9941406 -0.1132813 0.01757813
vn -0.9941406 -0.1132813 0.0234375
vn -0.9941406 -0.1132813 0.0234375
vn -0.9941406 -0.1132813 0.02929688
vt 0.009765625 -0.5996094
vt 0.1328125 -0.6064453
vt 0.01367188 -0.6367188
vt 0.1328125 -0.6279297
f 40/40/40 41/41/41 42/42/42
f 41/41/41 43/43/43 42/42/42
g polygon2
usemtl _02
v 0.09619141 1 -0.3171387
v -0.09619141 1 -0.3171387
v 0.5009766 1 -0.1862793
v -0.5009766 1 -0.1862793
v 0.5651855 1 -0.1049805
v -0.5651855 1 -0.1049805
v 0.6008301 1 0.9501953
v -0.6008301 1 0.9501953
vn 0 0.9980469 0
vn 0 0.9980469 0
vn 0 0.9980469 0
vn 0 0.9980469 0
vn 0 0.9980469 0
vn 0 0.9980469 0
vn 0 0.9980469 0
vn 0 0.9980469 0
vt 0.6484375 -0.2539063
vt 0.3339844 -0.2539063
vt 0.796875 -0.3300781
vt 0.1972656 -0.3417969
vt 0.8046875 -0.40625
vt 0.2011719 -0.40625
vt 0.8027344 -0.9023438
vt 0.1933594 -0.9023438
f 44/44/44 45/45/45 46/46/46
f 45/45/45 47/47/47 46/46/46
f 46/46/46 47/47/47 48/48/48
f 47/47/47 49/49/49 48/48/48
f 48/48/48 49/49/49 50/50/50
f 49/49/49 51/51/51 50/50/50
v -0.09619141 1 -0.3171387
v 0 0.7868652 -0.3764648
v -0.5009766 1 -0.1862793
v -0.5703125 0.7780762 -0.2033691
v -0.5651855 1 -0.1049805
v -0.6398926 0.7780762 -0.05712891
v -0.6674805 0.7780762 0.8352051
vn -0.6445313 -0.09570313 -0.7597656
vn -0.484375 0.03515625 -0.875
vn -0.4667969 0.1972656 -0.8613281
vn -0.6816406 0.2304688 -0.6933594
vn -0.9160156 0.2851563 -0.2792969
vn -0.9355469 0.265625 -0.2304688
vn -0.9648438 0.234375 0.1132813
vt 0.3339844 -0.2539063
vt 0.4902344 -0.09179688
vt 0.1972656 -0.3417969
vt 0.1074219 -0.3066406
vt 0.2011719 -0.40625
vt 0.07226563 -0.3261719
vt 0.03710938 -0.6640625
f 52/52/52 53/53/53 54/54/54
f 53/53/53 55/55/55 54/54/54
f 54/54/54 55/55/55 56/56/56
f 55/55/55 57/57/57 56/56/56
f 56/56/56 57/57/57 58/58/58
v 0.6008301 1 0.9501953
v -0.6008301 1 0.9501953
v 0.5969238 0.7780762 1
v -0.5969238 0.7780762 1
vn 0 0.21875 0.9765625
vn 0 0.21875 0.9765625
vn 0 0.21875 0.9765625
vn 0 0.21875 0.9765625
vt 0.8027344 -0.9023438
vt 0.1933594 -0.9023438
vt 0.8359375 -0.953125
vt 0.1738281 -0.953125
f 59/59/59 60/60/60 61/61/61
f 60/60/60 62/62/62 61/61/61
v 0.5969238 0.7780762 1
v 0.6674805 0.7780762 0.8352051
v 0.6008301 1 0.9501953
v 0.5651855 1 -0.1049805
vn 0.9160156 0.07226563 0.3925781
vn 0.9648438 0.234375 0.1132813
vn 0.9628906 0.1933594 0.1855469
vn 0.9160156 0.2851563 -0.2792969
vt 0.8359375 -0.953125
vt 0.9472656 -0.6542969
vt 0.8027344 -0.9023438
vt 0.8046875 -0.40625
f 63/63/63 64/64/64 65/65/65
f 64/64/64 66/66/66 65/65/65
v 0.09619141 1 -0.3171387
v 0.5009766 1 -0.1862793
v 0 0.7868652 -0.3764648
v 0.5703125 0.7780762 -0.2033691
vn 0.6445313 -0.09570313 -0.7597656
vn 0.4667969 0.1972656 -0.8613281
vn 0.484375 0.03515625 -0.875
vn 0.6816406 0.2304688 -0.6933594
vt 0.6484375 -0.2539063
vt 0.796875 -0.3300781
vt 0.4902344 -0.09179688
vt 0.890625 -0.3164063
f 67/67/67 68/68/68 69/69/69
f 68/68/68 70/70/70 69/69/69
v -0.5969238 0.7780762 1
v -0.6008301 1 0.9501953
v -0.6674805 0.7780762 0.8352051
v -0.5651855 1 -0.1049805
vn -0.9160156 0.07226563 0.3925781
vn -0.9628906 0.1933594 0.1855469
vn -0.9648438 0.234375 0.1132813
vn -0.9160156 0.2851563 -0.2792969
vt 0.1738281 -0.953125
vt 0.1933594 -0.9023438
vt 0.03710938 -0.6640625
vt 0.2011719 -0.40625
f 71/71/71 72/72/72 73/73/73
f 72/72/72 74/74/74 73/73/73
v 0.6398926 0.7780762 -0.05712891
v 0.5703125 0.7780762 -0.2033691
v 0.5651855 1 -0.1049805
v 0.5009766 1 -0.1862793
vn 0.9355469 0.265625 -0.2304688
vn 0.6816406 0.2304688 -0.6933594
vn 0.9160156 0.2851563 -0.2792969
vn 0.4667969 0.1972656 -0.8613281
vt 0.9511719 -0.3496094
vt 0.890625 -0.3164063
vt 0.8046875 -0.40625
vt 0.796875 -0.3300781
f 75/75/75 76/76/76 77/77/77
f 76/76/76 78/78/78 77/77/77
v 0.6674805 0.7780762 0.8352051
v 0.6398926 0.7780762 -0.05712891
v 0.5651855 1 -0.1049805
vn 0.9648438 0.234375 0.1132813
vn 0.9355469 0.265625 -0.2304688
vn 0.9160156 0.2851563 -0.2792969
vt 0.9472656 -0.6542969
vt 0.9511719 -0.3496094
vt 0.8046875 -0.40625
f 79/79/79 80/80/80 81/81/81
g polygon3
usemtl _04
v 0.1025391 0.1437988 0.1945801
v 0.08398438 0.1325684 -0.4638672
v 0 0.2546387 0.2490234
v 0 0.2299805 -0.420166
vn 0.59375 0.7226563 -0.3535156
vn 0.7382813 0.6738281 -0.02734375
vn 0.6035156 0.7128906 -0.3574219
vn 0.7519531 0.6582031 -0.0234375
vt 1 -0.9824219
vt 1 -0.2304688
vt 0.5078125 -0.9824219
vt 0.5078125 -0.4375
f 82/82/82 83/83/83 84/84/84
f 83/83/83 85/85/85 84/84/84
v -0.09545898 0.1437988 0.1960449
v 0 0.2546387 0.2490234
v -0.08398438 0.1325684 -0.4638672
v 0 0.2299805 -0.420166
vn -0.6425781 0.7011719 -0.3105469
vn -0.6445313 0.6972656 -0.3144531
vn -0.7519531 0.6601563 -0.0234375
vn -0.7519531 0.6582031 -0.0234375
vt 0 -0.9824219
vt 0.5078125 -0.9824219
vt 0 -0.2304688
vt 0.5078125 -0.4375
f 86/86/86 87/87/87 88/88/88
f 87/87/87 89/89/89 88/88/88
v -0.09545898 0.1437988 0.1960449
v -0.6159668 0.1325684 0.6166992
v 0 0.2546387 0.2490234
v -0.5300293 0.2299805 0.6564941
vn -0.6425781 0.7011719 -0.3105469
vn -0.4746094 0.6679688 -0.5722656
vn -0.6445313 0.6972656 -0.3144531
vn -0.4765625 0.6582031 -0.5820313
vt 1 -0.9824219
vt 1 -0.2304688
vt 0.5078125 -0.9824219
vt 0.5078125 -0.4375
f 90/90/90 91/91/91 92/92/92
f 91/91/91 93/93/93 92/92/92
v -0.5300293 0.2299805 0.6564941
v -0.5134277 0.1325684 0.7497559
v 0 0.2546387 0.2490234
v 0 0.1437988 0.3720703
vn 0.4394531 0.6601563 0.6113281
vn 0.4335938 0.6660156 0.6074219
vn 0.05273438 0.71875 0.6914063
vn 0.06640625 0.7421875 0.6679688
vt 0.5078125 -0.4375
vt 0 -0.2304688
vt 0.5078125 -0.9824219
vt 0 -0.9824219
f 94/94/94 95/95/95 96/96/96
f 95/95/95 97/97/97 96/96/96
v 0.5864258 0.2299805 0.5800781
v 0 0.2546387 0.2490234
v 0.5839844 0.1325684 0.6640625
v 0 0.1437988 0.3720703
vn -0.3691406 0.6132813 0.6992188
vn 0.05273438 0.71875 0.6914063
vn -0.3378906 0.6621094 0.6699219
vn 0.06640625 0.7421875 0.6679688
vt 0.5078125 -0.4375
vt 0.5078125 -0.9824219
vt 1 -0.2304688
vt 1 -0.9824219
f 98/98/98 99/99/99 100/100/100
f 99/99/99 101/101/101 100/100/100
v 0.5864258 0.2299805 0.5800781
v 0.65625 0.1325684 0.5241699
v 0 0.2546387 0.2490234
v 0.1025391 0.1437988 0.1945801
vn 0.3925781 0.6523438 -0.6484375
vn 0.390625 0.6621094 -0.640625
vn 0.6035156 0.7128906 -0.3574219
vn 0.59375 0.7226563 -0.3535156
vt 0.5078125 -0.4375
vt 0 -0.2304688
vt 0.5078125 -0.9824219
vt 0 -0.9824219
f 102/102/102 103/103/103 104/104/104
f 103/103/103 105/105/105 104/104/104
v 0 0.1320801 0.3347168
v 0.08374023 0.1320801 0.2509766
v 0 0.8554688 0.3347168
v 0.08374023 0.8554688 0.2509766
vn 0.7070313 0 0.7070313
vn 0.7070313 0 0.7070313
vn 0.7070313 0 0.7070313
vn 0.7070313 0 0.7070313
vt 1 -0.6601563
vt 0.484375 -0.6601563
vt 1 -1
vt 0.484375 -1
f 106/106/106 107/107/107 108/108/108
f 107/107/107 109/109/109 108/108/108
v -0.08374023 0.8554688 0.2509766
v 0 0.8554688 0.1672363
v -0.08374023 0.1320801 0.2509766
v 0 0.1320801 0.1672363
vn -0.7070313 0 -0.7070313
vn -0.7070313 0 -0.7070313
vn -0.7070313 0 -0.7070313
vn -0.7070313 0 -0.7070313
vt 0.484375 -1
vt 1 -1
vt 0.484375 -0.6601563
vt 1 -0.6601563
f 110/110/110 111/111/111 112/112/112
f 111/111/111 113/113/113 112/112/112
v 0.08374023 0.1320801 0.2509766
v 0 0.1320801 0.1672363
v 0.08374023 0.8554688 0.2509766
v 0 0.8554688 0.1672363
vn 0.7070313 0 -0.7070313
vn 0.7070313 0 -0.7070313
vn 0.7070313 0 -0.7070313
vn 0.7070313 0 -0.7070313
vt 0.484375 -0.6601563
vt 1 -0.6601563
vt 0.484375 -1
vt 1 -1
f 114/114/114 115/115/115 116/116/116
f 115/115/115 117/117/117 116/116/116
v -0.08374023 0.1320801 0.2509766
v 0 0.1320801 0.3347168
v -0.08374023 0.8554688 0.2509766
v 0 0.8554688 0.3347168
vn -0.7070313 0 0.7070313
vn -0.7070313 0 0.7070313
vn -0.7070313 0 0.7070313
vn -0.7070313 0 0.7070313
vt 0.484375 -0.6601563
vt 1 -0.6601563
vt 0.484375 -1
vt 1 -1
f 118/118/118 119/119/119 120/120/120
f 119/119/119 121/121/121 120/120/120
v 0 0.2299805 -0.420166
v 0.08398438 0.1325684 -0.4638672
v -0.08398438 0.1325684 -0.4638672
v -0.5300293 0.2299805 0.6564941
v -0.6159668 0.1325684 0.6166992
v -0.5134277 0.1325684 0.7497559
v 0.5864258 0.2299805 0.5800781
v 0.5839844 0.1325684 0.6640625
v 0.65625 0.1325684 0.5241699
vn 0 0.4082031 -0.9121094
vn 0 0.4082031 -0.9121094
vn 0 0.4082031 -0.9121094
vn -0.7226563 0.4082031 0.5566406
vn -0.7226563 0.4082031 0.5566406
vn -0.7226563 0.4082031 0.5566406
vn 0.8320313 0.3496094 0.4296875
vn 0.8320313 0.3496094 0.4296875
vn 0.8320313 0.3496094 0.4296875
vt 0.96875 -0.5039063
vt 0.6953125 -0.359375
vt 0.71875 -0.6601563
vt 0.96875 -0.5039063
vt 0.6953125 -0.359375
vt 0.71875 -0.6601563
vt 0.96875 -0.5039063
vt 0.6953125 -0.359375
vt 0.71875 -0.6601563
f 122/122/122 123/123/123 124/124/124
f 125/125/125 126/126/126 127/127/127
f 128/128/128 129/129/129 130/130/130
g polygon4
usemtl _03
v 0.5688477 0.04467773 0.630127
v 0.5842285 0.1467285 0.6386719
v 0.4912109 0 0.5876465
v 0.3981934 0.1467285 0.5366211
v 0.4138184 0.04467773 0.545166
vn -0.4804688 0 0.8769531
vn -0.4804688 0 0.8769531
vn -0.4804688 0 0.8769531
vn -0.4804688 0 0.8769531
vn -0.4804688 0 0.8769531
vt 0 -0.4492188
vt 0 0
vt 0.5019531 -0.9570313
vt 1 0
vt 1 -0.5
f 131/131/131 132/132/132 133/133/133
f 132/132/132 134/134/134 133/133/133
f 133/133/133 134/134/134 135/135/135
v 0.4726563 0.04467773 0.4377441
v 0.4570313 0.1467285 0.4291992
v 0.5500488 0 0.4814453
v 0.637207 0.1467285 0.53125
v 0.6220703 0.04467773 0.5227051
vn 0.4921875 0.001953125 -0.8691406
vn 0.4921875 0.001953125 -0.8691406
vn 0.4941406 0.001953125 -0.8691406
vn 0.4941406 0 -0.8691406
vn 0.4960938 -0.001953125 -0.8671875
vt 1 -0.5
vt 1 0
vt 0.5019531 -0.9570313
vt 0 0
vt 0 -0.4492188
f 136/136/136 137/137/137 138/138/138
f 137/137/137 139/139/139 138/138/138
f 138/138/138 139/139/139 140/140/140
v 0.4138184 0.04467773 0.545166
v 0.3981934 0.1467285 0.5366211
v 0.4726563 0.04467773 0.4377441
v 0.4570313 0.1467285 0.4291992
vn -0.8632813 -0.171875 -0.4726563
vn -0.8632813 -0.171875 -0.4726563
vn -0.8632813 -0.171875 -0.4726563
vn -0.8632813 -0.171875 -0.4726563
vt 1 -0.5
vt 1 0
vt 1 -0.5
vt 1 0
f 141/141/141 142/142/142 143/143/143
f 142/142/142 144/144/144 143/143/143
v 0.5842285 0.1467285 0.6386719
v 0.5688477 0.04467773 0.630127
v 0.637207 0.1467285 0.53125
v 0.6220703 0.04467773 0.5227051
vn 0.8828125 -0.1699219 0.4355469
vn 0.8828125 -0.1699219 0.4375
vn 0.8828125 -0.1699219 0.4375
vn 0.8828125 -0.1679688 0.4394531
vt 1 0
vt 1 -0.5
vt 1 0
vt 1 -0.5
f 145/145/145 146/146/146 147/147/147
f 146/146/146 148/148/148 147/147/147
v -0.0612793 0.04467773 -0.4157715
v -0.0612793 0.1467285 -0.4284668
v 0.0612793 0.04467773 -0.4157715
v 0.0612793 0.1467285 -0.4284668
vn 0 -0.125 -0.9921875
vn 0 -0.125 -0.9921875
vn 0 -0.125 -0.9921875
vn 0 -0.125 -0.9921875
vt 1 -0.5
vt 1 0
vt 1 -0.5
vt 1 0
f 149/149/149 150/150/150 151/151/151
f 150/150/150 152/152/152 151/151/151
v -0.0612793 0.1467285 -0.2163086
v -0.0612793 0.04467773 -0.2290039
v 0.0612793 0.1467285 -0.2163086
v 0.0612793 0.04467773 -0.2290039
vn 0 -0.125 0.9921875
vn 0 -0.125 0.9921875
vn 0 -0.125 0.9921875
vn 0 -0.125 0.9921875
vt 1 0
vt 1 -0.5
vt 1 0
vt 1 -0.5
f 153/153/153 154/154/154 155/155/155
f 154/154/154 156/156/156 155/155/155
v -0.4140625 0.04467773 0.4899902
v -0.4033203 0.1467285 0.4814453
v -0.3393555 0.04467773 0.5871582
v -0.3286133 0.1467285 0.5786133
vn 0.7851563 -0.1347656 -0.6035156
vn 0.7851563 -0.1347656 -0.6035156
vn 0.7851563 -0.1347656 -0.6035156
vn 0.7851563 -0.1347656 -0.6035156
vt 1 -0.5
vt 1 0
vt 1 -0.5
vt 1 0
f 157/157/157 158/158/158 159/159/159
f 158/158/158 160/160/160 159/159/159
v -0.5715332 0.1467285 0.6108398
v -0.5605469 0.04467773 0.6025391
v -0.4968262 0.1467285 0.7080078
v -0.4858398 0.04467773 0.699707
vn -0.7851563 -0.1347656 0.6035156
vn -0.7851563 -0.1347656 0.6035156
vn -0.7851563 -0.1347656 0.6035156
vn -0.7851563 -0.1347656 0.6035156
vt 1 0
vt 1 -0.5
vt 1 0
vt 1 -0.5
f 161/161/161 162/162/162 163/163/163
f 162/162/162 164/164/164 163/163/163
v 0.0612793 0.04467773 -0.2290039
v 0.0612793 0 -0.3225098
v 0.0612793 0.1467285 -0.2163086
v 0.0612793 0.1467285 -0.4284668
vn 0.9980469 0 0
vn 0.9980469 0 0
vn 0.9980469 0 0
vn 0.9980469 0 0
vt 0 -0.4492188
vt 0.5019531 -0.9570313
vt 0 0
vt 1 0
f 165/165/165 166/166/166 167/167/167
f 166/166/166 168/168/168 167/167/167
v -0.0612793 0.04467773 -0.4157715
v -0.0612793 0 -0.3225098
v -0.0612793 0.1467285 -0.4284668
v -0.0612793 0.1467285 -0.2163086
vn -1 0 0
vn -1 0 0
vn -1 0 0
vn -1 0 0
vt 1 -0.5
vt 0.5019531 -0.9570313
vt 1 0
vt 0 0
f 169/169/169 170/170/170 171/171/171
f 170/170/170 172/172/172 171/171/171
v -0.4858398 0.04467773 0.699707
v -0.4125977 0 0.6433105
v -0.4968262 0.1467285 0.7080078
v -0.3286133 0.1467285 0.5786133
vn 0.609375 0 0.7929688
vn 0.609375 0 0.7929688
vn 0.609375 0 0.7929688
vn 0.609375 0 0.7929688
vt 0 -0.4492188
vt 0.5019531 -0.9570313
vt 0 0
vt 1 0
f 173/173/173 174/174/174 175/175/175
f 174/174/174 176/176/176 175/175/175
v -0.4140625 0.04467773 0.4899902
v -0.4873047 0 0.5461426
v -0.4033203 0.1467285 0.4814453
v -0.5715332 0.1467285 0.6108398
vn -0.609375 0 -0.7929688
vn -0.609375 0 -0.7929688
vn -0.609375 0 -0.7929688
vn -0.609375 0 -0.7929688
vt 1 -0.5
vt 0.5019531 -0.9570313
vt 1 0
vt 0 0
f 177/177/177 178/178/178 179/179/179
f 178/178/178 180/180/180 179/179/179
v 0.0612793 0.1467285 -0.4284668
v 0.0612793 0 -0.3225098
v 0.0612793 0.04467773 -0.4157715
v -0.0612793 0 -0.3225098
v -0.0612793 0.04467773 -0.2290039
v -0.0612793 0.1467285 -0.2163086
v -0.3286133 0.1467285 0.5786133
v -0.4125977 0 0.6433105
v -0.3393555 0.04467773 0.5871582
v -0.4873047 0 0.5461426
v -0.5605469 0.04467773 0.6025391
v -0.5715332 0.1467285 0.6108398
vn 0.9980469 0 0
vn 0.9980469 0 0
vn 0.9980469 0 0
vn -1 0 0
vn -1 0 0
vn -1 0 0
vn 0.609375 0 0.7929688
vn 0.609375 0 0.7929688
vn 0.609375 0 0.7929688
vn -0.609375 0 -0.7929688
vn -0.609375 0 -0.7929688
vn -0.609375 0 -0.7929688
vt 1 0
vt 0.5019531 -0.9570313
vt 1 -0.5
vt 0.5019531 -0.9570313
vt 0 -0.4492188
vt 0 0
vt 1 0
vt 0.5019531 -0.9570313
vt 1 -0.5
vt 0.5019531 -0.9570313
vt 0 -0.4492188
vt 0 0
f 181/181/181 182/182/182 183/183/183
f 184/184/184 185/185/185 186/186/186
f 187/187/187 188/188/188 189/189/189
f 190/190/190 191/191/191 192/192/192
